PathFileType	4	(X/Y/Z)	D:\TRACE\spot_10-12-23\spot_body_motion_2_5-platform.trc
DataRate	CameraRate	NumFrames	NumMarkers	Units	OrigDataRate	OrigDataStartFrame	OrigNumFrames
100.00	100.00	      66	5	mm	100.00	3501	      7000
Frame#	Time	Left_Front			Right_Front			Left_Aft			Right_Aft			Post			
		X1	Y1	Z1	X2	Y2	Z2	X3	Y3	Z3	X4	Y4	Z4	X5	Y5	Z5	

3501	35.000	-733.70795	41.48597	-632.10376	838.77930	46.50409	-625.41626	-650.34546	-19.11145	504.00772	766.83990	-18.53360	590.14996	49.11197	795.11316	-910.59216	
3502	35.010	-733.26282	43.04831	-631.70697	839.50616	47.79185	-624.92773	-650.02026	-19.97675	504.10861	767.18042	-19.47146	590.41681	49.50051	797.06256	-908.44159	
3503	35.020	-732.68890	44.36098	-631.29120	839.79346	48.92639	-624.69177	-649.60864	-20.95847	504.49802	767.92456	-20.70691	590.63708	49.83974	798.72961	-906.75452	
3504	35.030	-732.16760	45.44617	-630.93451	840.26843	50.06755	-624.36389	-649.12085	-21.62003	504.63089	768.26416	-21.62736	590.98883	50.25501	800.50488	-904.96631	
3505	35.040	-731.99030	46.72518	-630.66888	840.60370	51.41925	-623.83813	-648.63898	-22.51481	504.92694	768.76819	-22.78466	591.10358	50.87066	802.18066	-903.06073	
3506	35.050	-731.52856	47.89480	-630.35211	840.93274	52.36637	-623.43616	-648.10425	-23.81595	505.38403	769.00940	-23.76461	591.26398	50.87612	803.71265	-901.69958	
3507	35.060	-731.13281	49.13194	-629.89557	841.17126	53.66448	-623.34576	-647.92358	-24.51945	505.73312	769.27710	-24.80297	591.45538	51.42300	805.66150	-899.86206	
3508	35.070	-731.11249	50.25304	-629.41205	841.48694	55.09301	-622.83594	-647.64227	-25.26981	505.94962	769.55188	-25.71818	591.71844	51.53311	807.36981	-898.41846	
3509	35.080	-730.82751	51.66858	-629.27814	841.87933	56.06311	-622.50159	-647.51489	-25.92789	506.12637	769.90112	-26.63922	591.92572	51.76520	808.90314	-896.91382	
3510	35.090	-730.66882	52.64858	-628.89606	842.00018	57.10173	-622.11450	-647.39832	-26.70568	506.20224	769.93085	-27.53461	592.11395	52.10607	810.45044	-895.38885	
3511	35.100	-730.58856	53.78125	-628.57416	842.08038	58.31169	-621.93719	-647.22717	-27.67822	506.43933	769.98737	-28.67048	592.42456	52.03131	812.07086	-893.74493	
3512	35.110	-730.32678	54.41756	-628.14978	842.20862	59.35733	-621.48383	-647.08282	-28.24905	506.59314	770.29773	-29.46966	592.67352	52.33802	813.46893	-892.08234	
3513	35.120	-730.56030	55.74176	-627.87769	842.13562	60.21947	-621.11230	-647.13690	-28.86286	506.71643	769.95636	-30.37652	591.97961	52.13964	814.96558	-890.54987	
3514	35.130	-730.40521	56.82104	-627.68237	842.14130	61.14560	-620.92651	-647.12366	-29.68642	506.97748	770.25336	-30.92039	593.06964	52.13963	816.21191	-888.80371	
3515	35.140	-730.57306	57.80496	-627.28064	842.14508	62.28055	-620.70013	-647.21552	-30.31854	506.94815	770.01917	-32.04903	592.48419	52.12458	817.44049	-887.48328	
3516	35.150	-730.48444	58.38196	-626.97125	842.22778	62.96146	-620.38208	-647.13226	-30.88099	507.08710	770.15723	-32.74020	592.76611	52.06579	818.64874	-885.95563	
3517	35.160	-730.44843	59.39764	-626.70160	841.95959	63.83795	-620.08203	-647.06573	-31.57715	507.39590	770.07861	-33.36814	593.00702	51.79644	819.96436	-884.68402	
3518	35.170	-730.46313	60.27783	-626.53815	842.12018	64.55106	-619.60425	-647.14703	-32.29675	507.62286	770.17908	-33.88311	593.76892	51.83727	821.04950	-883.44067	
3519	35.180	-730.61859	60.86819	-626.27826	841.96960	65.59820	-619.34918	-647.52838	-32.67785	507.69534	769.98572	-34.85752	593.83820	51.92229	822.21912	-882.13776	
3520	35.190	-731.01367	61.85577	-625.85675	841.54388	66.38624	-619.12469	-647.76379	-33.22699	507.81735	769.82318	-35.49056	593.81586	51.40420	823.37128	-881.22479	
3521	35.200	-731.31323	62.57829	-625.61127	841.16760	67.09834	-618.94580	-648.12036	-33.77066	507.93497	769.36847	-36.13940	594.08789	51.22527	824.50354	-880.33350	
3522	35.210	-731.65851	63.35573	-625.26807	840.81232	67.67452	-618.66193	-648.35333	-34.42657	508.11475	768.74457	-36.75512	594.25885	50.82409	825.45789	-879.40979	
3523	35.220	-732.03040	64.17673	-625.16638	840.54248	68.24545	-618.45984	-648.65594	-35.01938	508.26770	768.33557	-37.24849	594.37897	50.35445	826.47394	-878.33411	
3524	35.230	-732.35150	64.57522	-625.05170	840.30701	69.10847	-618.21185	-648.84167	-35.33995	508.73877	768.10406	-37.53217	594.50012	50.05855	827.26624	-877.16010	
3525	35.240	-732.73401	65.32821	-624.76221	840.02124	69.86763	-617.98236	-649.18689	-35.75856	508.88461	767.79089	-38.21369	594.56885	49.78603	828.00647	-876.33423	
3526	35.250	-732.77173	65.59562	-624.53174	839.78027	70.14460	-617.81787	-649.68262	-36.10675	508.94177	767.50775	-38.74213	594.68591	49.34609	828.81171	-875.49536	
3527	35.260	-733.40125	66.10089	-624.26544	839.33313	70.64153	-617.69519	-650.01746	-36.64529	509.03235	767.19647	-39.28185	594.80457	49.12517	829.50873	-874.63446	
3528	35.270	-733.87213	66.50311	-624.13245	838.67084	71.18988	-617.65247	-650.38147	-37.05944	509.16354	766.95099	-39.74195	594.91260	48.62225	830.16132	-873.89325	
3529	35.280	-734.23248	66.94936	-623.92218	838.19891	71.55434	-617.45166	-651.01685	-37.14506	508.92883	766.44330	-40.07421	594.96515	48.26219	830.62213	-873.31152	
3530	35.290	-734.69733	67.50488	-623.90228	837.61682	71.88188	-617.35065	-651.56769	-37.51112	508.96725	765.90967	-40.48341	595.12445	47.52088	831.35254	-872.50891	
3531	35.300	-735.40039	68.43311	-623.87402	837.10522	72.38180	-617.12292	-651.95142	-37.71212	509.19101	765.31543	-40.81362	595.09399	47.19243	832.02509	-871.86737	
3532	35.310	-735.71265	68.67265	-623.79651	836.68921	72.82162	-616.98450	-652.37415	-38.13515	509.15765	764.75488	-41.04447	595.18158	46.81006	832.62726	-871.41064	
3533	35.320	-736.22235	68.85770	-623.64233	836.27472	73.18055	-616.86426	-652.99139	-38.40782	509.24246	764.34033	-41.31173	595.20844	46.50460	833.09326	-870.95630	
3534	35.330	-736.82330	69.09412	-623.51227	835.94147	73.55321	-616.72766	-653.30756	-38.64597	509.28882	763.82153	-41.61912	595.21014	45.81497	833.55396	-870.50000	
3535	35.340	-737.31580	69.29866	-623.32452	835.40131	73.63306	-616.67731	-653.75153	-38.76485	509.35812	763.39459	-41.88357	595.23102	45.00171	833.82892	-870.03033	
3536	35.350	-737.79309	69.50420	-623.12164	834.68500	73.85239	-616.60883	-654.40131	-38.89176	509.38217	762.96259	-42.12587	595.32111	44.63493	834.04523	-869.63190	
3537	35.360	-738.45972	69.72450	-623.13239	834.05206	74.07777	-616.47302	-655.09521	-39.11145	509.36066	762.36957	-42.33865	595.29919	43.94805	834.27917	-869.30865	
3538	35.370	-739.16040	69.95269	-623.18378	833.52692	74.29729	-616.41119	-655.66754	-39.17601	509.39218	761.42365	-42.41730	595.33685	43.39724	834.41901	-869.10248	
3539	35.380	-739.75098	69.99532	-623.11310	833.05670	74.40140	-616.46924	-656.19263	-39.19034	509.43176	760.87451	-42.41290	595.36566	42.81343	834.49945	-868.88635	
3540	35.390	-740.37073	70.13719	-623.14081	832.40015	74.38098	-616.52283	-656.88550	-39.41586	509.32767	760.33972	-42.52391	595.29120	42.06253	834.73901	-868.70081	
3541	35.400	-740.93854	70.16701	-623.09601	831.53052	74.37737	-616.46777	-657.57367	-39.35817	509.41086	759.99115	-42.60212	595.26447	41.52415	834.83405	-868.66901	
3542	35.410	-741.49768	70.18234	-623.12512	830.92908	74.33110	-616.33887	-658.17706	-39.34432	509.41095	759.21600	-42.61466	595.24628	41.00058	834.76947	-868.83441	
3543	35.420	-742.33984	70.29561	-623.16742	830.45374	74.39589	-616.36401	-658.84088	-39.29464	509.32303	758.37653	-42.50519	595.37451	40.53008	834.80566	-868.85968	
3544	35.430	-743.00067	70.12577	-623.10358	829.94727	74.48511	-616.43103	-659.62268	-39.13636	509.22543	757.77698	-42.45783	595.46484	39.52573	834.87384	-869.18964	
3545	35.440	-743.83539	69.95593	-623.21289	828.92065	74.37270	-616.57135	-660.43848	-39.08343	509.32825	756.99390	-42.33687	595.52881	38.64573	834.66681	-869.31427	
3546	35.450	-744.26477	69.84476	-623.24854	827.88861	74.12624	-616.66345	-661.05072	-39.12183	509.31769	756.12598	-42.37402	595.39899	38.00951	834.38922	-869.43188	
3547	35.460	-745.13660	69.70702	-623.38019	827.27588	73.99802	-616.52521	-661.79504	-39.08715	509.33209	755.55225	-42.76162	594.80579	37.55758	834.15289	-869.51312	
3548	35.470	-745.89880	69.51452	-623.28845	826.83984	73.83046	-616.47748	-662.52338	-38.87328	509.37839	754.95001	-42.44866	594.93353	36.68692	833.94080	-869.96289	
3549	35.480	-746.78418	69.22663	-623.38898	825.82111	73.58000	-616.68774	-663.21210	-38.83065	509.27029	754.03168	-42.03670	595.00641	35.88624	833.79987	-870.21002	
3550	35.490	-747.57373	69.31553	-623.41235	825.02985	73.39454	-616.67017	-664.17511	-38.62175	509.09787	753.49438	-41.75645	595.01270	34.91216	833.39832	-870.49628	
3551	35.500	-748.28851	68.81670	-623.59625	824.29132	73.16736	-616.88513	-664.98572	-38.24749	509.06619	752.57440	-41.35346	594.99823	34.41431	832.88977	-870.80017	
3552	35.510	-749.11670	68.28374	-623.71136	823.41675	72.54214	-617.14697	-665.69293	-38.07946	509.10751	751.66614	-41.00856	595.00531	33.23581	832.28271	-871.30237	
3553	35.520	-749.98810	67.95675	-623.84351	822.66016	72.17844	-617.13000	-666.49054	-37.87613	509.11124	750.95453	-40.74431	595.01776	32.59143	831.73767	-871.72009	
3554	35.530	-750.77051	67.56393	-623.90479	821.70850	71.88514	-617.22760	-667.40039	-37.51475	509.09225	749.98615	-40.44948	594.91467	31.81827	831.19244	-872.28943	
3555	35.540	-751.71033	66.98179	-624.02118	820.95514	71.50844	-617.39331	-668.37231	-37.05139	508.90732	748.89783	-40.03241	594.85925	30.72578	830.61237	-873.19086	
3556	35.550	-752.60126	66.60649	-624.38269	820.04346	70.87227	-617.51514	-669.28290	-36.64580	508.76495	748.26794	-39.66619	594.90790	30.15051	830.05756	-873.87762	
3557	35.560	-753.60840	66.18591	-624.44055	818.97125	70.41594	-617.81055	-670.10736	-36.39470	508.71045	747.34070	-39.05459	594.70679	29.05826	829.14404	-874.89667	
3558	35.570	-754.28827	65.49339	-624.66290	818.01715	69.80081	-618.09125	-670.83075	-36.08945	508.88187	746.33795	-38.60065	594.63977	28.32931	828.34930	-875.78906	
3559	35.580	-755.36786	65.07357	-624.93073	817.34894	69.11272	-618.13574	-671.82526	-35.51482	508.51791	745.54462	-38.12873	594.50781	27.11671	827.57269	-876.86780	
3560	35.590	-756.26917	64.43625	-625.08392	816.52460	68.55244	-618.21924	-672.86731	-35.12479	508.38947	744.63379	-37.63385	594.45447	26.58123	826.83221	-877.69318	
3561	35.600	-757.19482	63.59341	-625.29926	815.36926	67.95534	-618.44586	-673.77869	-34.96756	508.54123	743.42639	-37.02683	594.28589	25.36830	826.01801	-878.89600	
3562	35.610	-758.09009	62.84389	-625.43451	814.50122	67.42135	-618.79529	-674.66968	-34.44276	508.47708	742.67084	-36.52094	594.14276	24.47297	825.21667	-879.63623	
3563	35.620	-759.30737	62.46607	-625.67700	813.42206	66.76203	-619.17438	-675.79266	-33.72252	508.00165	741.76306	-36.05690	594.01483	23.39398	824.14313	-880.89105	
3564	35.630	-760.13696	61.56126	-625.99292	812.26971	66.02515	-619.30841	-676.68988	-33.37933	508.11215	740.58307	-35.34095	593.94714	22.77525	822.93494	-881.77942	
3565	35.640	-761.21027	61.05129	-626.16180	811.49316	65.29430	-619.31006	-677.46216	-32.79491	508.10449	739.72388	-34.77010	593.73004	21.61749	822.10577	-882.81830	
3566	35.650	-762.10468	60.06127	-626.41040	810.51276	64.21649	-619.67712	-678.60071	-32.11139	507.95569	738.69739	-34.16608	593.57782	20.54011	821.01953	-883.78186	
